# xmcd
#
# Track frame offsets: 
#        150
#        18850
#        41925
#        67045
#        83700
#        106602
#        123325
#        150888
#        178414
#        203966
#        215206
#        242407
#        260916
#        285258
#
# Disc length: 4054 seconds
#
# Revision: 0
# Processed by: cddbd v1.5.2PL0 Copyright (c) Steve Scherf et al.
# Submitted via: ExactAudioCopy v0.99pb3
#
DISCID=c30fd40e
DTITLE=Mike Morgan And The Crawl - Stronger Every Day
DYEAR=2008
DGENRE=Blues
TTITLE0=All Night Long
TTITLE1=Where's The Love
TTITLE2=Sweet Angel
TTITLE3=You're The One (I'll Miss The Most)
TTITLE4=Stronger Everyday
TTITLE5=The Birthday Song
TTITLE6=When I Get Back Home
TTITLE7=How Much More Time
TTITLE8=I Have To Set You Free
TTITLE9=Okie Dokie Stomp
TTITLE10=I Cried For My Baby
TTITLE11=97 Times
TTITLE12=Funky Thang
TTITLE13=Time
EXTD=
EXTT0=
EXTT1=
EXTT2=
EXTT3=
EXTT4=
EXTT5=
EXTT6=
EXTT7=
EXTT8=
EXTT9=
EXTT10=
EXTT11=
EXTT12=
EXTT13=
PLAYORDER=
